<?xml version="1.0" encoding="UTF-8"?>
<svg id="Ebene_1" xmlns="http://www.w3.org/2000/svg" xmlns:xlink="http://www.w3.org/1999/xlink" version="1.1" viewBox="0 0 283.46 59.61">
  <!-- Generator: Adobe Illustrator 30.2.1, SVG Export Plug-In . SVG Version: 2.1.1 Build 1)  -->
  <defs>
    <style>
      .st0 {
        fill: none;
      }

      .st1 {
        fill: #006c31;
      }

      .st2 {
        clip-path: url(#clippath);
      }
    </style>
    <clipPath id="clippath">
      <rect class="st0" width="283.46" height="59.6"/>
    </clipPath>
  </defs>
  <g class="st2">
    <polygon class="st1" points="238.56 47.09 245.81 47.09 245.81 12.8 238.56 12.8 238.56 47.09 238.56 47.09"/>
    <polygon class="st1" points="223.86 0 223.86 7.25 223.86 7.25 223.86 25.31 223.86 59.61 245.81 59.61 245.81 53.63 231.11 53.63 231.11 25.31 231.11 7.25 276.21 7.25 276.21 59.61 283.46 59.61 283.46 0 283.46 0 223.86 0 223.86 0"/>
    <polygon class="st1" points="257.34 25.31 250.09 25.31 250.09 59.61 272.04 59.61 272.04 53.63 257.34 53.63 257.34 25.31 257.34 25.31"/>
  </g>
  <path class="st1" d="M0,7.25v23.09h4.88V7.25H0ZM24.59,7.25v14.52h-.2L14.42,7.25h-4.28v23.09h4.88v-14.53h.17l10.05,14.53h4.22V7.25h-4.86ZM40.03,11.27v19.07h4.83V11.27h7.07v-4.03h-18.96v4.03h7.07ZM71.02,30.34v-4.03h-10.72v-5.51h9.88v-4.03h-9.88v-5.5h10.68v-4.03h-15.56v23.09h15.6Z"/>
  <path class="st1" d="M91.92,18.74c.66-1.1.99-2.42.99-3.95s-.33-2.85-.98-3.99c-.65-1.13-1.59-2.01-2.83-2.63-1.24-.62-2.73-.93-4.47-.93h-9.11v23.09h4.88v-8.19h3.56l4.37,8.19h5.39l-4.91-8.99c.07-.03.16-.04.23-.07,1.25-.59,2.21-1.43,2.87-2.53h0ZM87.88,14.79c0,.76-.15,1.39-.46,1.91-.3.51-.76.89-1.38,1.15-.62.26-1.39.38-2.32.38h-3.31v-6.99h3.29c.94,0,1.72.14,2.34.41.62.27,1.08.67,1.39,1.2.3.53.46,1.17.46,1.94h0Z"/>
  <polygon class="st1" points="111.76 30.34 111.76 26.31 101.86 26.31 101.86 7.25 96.98 7.25 96.98 30.34 111.76 30.34 111.76 30.34"/>
  <polygon class="st1" points="129.93 30.34 129.93 26.31 120.03 26.31 120.03 7.25 115.14 7.25 115.14 30.34 129.93 30.34 129.93 30.34"/>
  <path class="st1" d="M151.39,12.36c-.95-1.77-2.24-3.11-3.88-4.04-1.63-.93-3.47-1.39-5.51-1.39s-3.89.46-5.52,1.39c-1.63.93-2.92,2.28-3.87,4.04-.95,1.77-1.42,3.91-1.42,6.43s.47,4.65,1.42,6.42c.95,1.77,2.24,3.12,3.87,4.05,1.63.93,3.47,1.4,5.52,1.4s3.87-.46,5.51-1.39c1.64-.93,2.93-2.28,3.88-4.04.95-1.77,1.43-3.91,1.43-6.43s-.47-4.66-1.43-6.43h0ZM147.14,22.92c-.49,1.12-1.17,1.97-2.05,2.55-.88.58-1.91.87-3.09.87s-2.21-.29-3.09-.87c-.88-.58-1.56-1.43-2.05-2.55-.49-1.12-.73-2.5-.73-4.13s.24-3.01.73-4.13c.48-1.12,1.17-1.97,2.05-2.55.88-.58,1.91-.87,3.09-.87s2.21.29,3.09.87c.88.58,1.56,1.43,2.05,2.55.49,1.12.73,2.5.73,4.13s-.24,3.01-.73,4.13h0Z"/>
  <polygon class="st1" points="161.24 22.17 161.24 30.34 166.09 30.34 166.09 22.17 174.51 7.25 169.04 7.25 163.77 17.19 163.55 17.19 158.28 7.25 152.82 7.25 161.24 22.17 161.24 22.17"/>
  <path class="st1" d="M191.7,28.95c1.69-.92,2.98-2.25,3.89-3.98.91-1.73,1.36-3.8,1.36-6.2s-.45-4.46-1.36-6.18c-.91-1.72-2.2-3.04-3.87-3.96-1.68-.92-3.68-1.38-6-1.38h-8.25v23.09h8.19c2.34,0,4.36-.46,6.05-1.39h0ZM182.35,11.43h3.11c1.44,0,2.66.26,3.64.77.98.51,1.73,1.31,2.23,2.39.5,1.08.75,2.48.75,4.18s-.25,3.13-.75,4.21c-.5,1.09-1.24,1.89-2.23,2.4-.99.51-2.21.77-3.65.77h-3.1v-14.72h0Z"/>
  <polygon class="st1" points="0 40.95 4.65 53.61 6.23 53.61 10.88 40.95 9.27 40.95 5.51 51.6 5.36 51.6 1.61 40.95 0 40.95 0 40.95"/>
  <polygon class="st1" points="21.89 53.61 21.89 52.25 15.69 52.25 15.69 47.95 21.4 47.95 21.4 46.59 15.69 46.59 15.69 42.31 21.79 42.31 21.79 40.95 14.15 40.95 14.15 53.61 21.89 53.61 21.89 53.61"/>
  <path class="st1" d="M33.98,46.81c.3-.58.46-1.24.46-1.98s-.15-1.41-.46-2c-.3-.58-.77-1.05-1.41-1.38-.63-.34-1.45-.5-2.43-.5h-4.28v12.66h1.53v-4.94h2.77c.11,0,.21,0,.32-.01l2.67,4.96h1.78l-2.86-5.22c.18-.06.35-.13.51-.21.63-.33,1.1-.78,1.4-1.36h0ZM32.93,44.83c0,.51-.09.94-.28,1.31-.19.36-.49.65-.9.84-.41.2-.96.3-1.63.3h-2.72v-4.97h2.69c.68,0,1.23.1,1.65.31.42.21.72.5.91.88.19.38.28.82.28,1.33h0Z"/>
  <path class="st1" d="M46.69,44.11c-.02-.64-.22-1.21-.59-1.71-.37-.5-.88-.9-1.51-1.19-.63-.29-1.36-.44-2.18-.44s-1.54.15-2.19.44c-.65.29-1.17.71-1.56,1.24-.39.53-.58,1.15-.58,1.86,0,.85.29,1.54.87,2.07.58.53,1.36.93,2.35,1.22l1.56.44c.44.12.86.27,1.24.43.38.16.69.38.93.64.23.26.35.61.35,1.03,0,.46-.14.86-.41,1.21-.27.34-.64.61-1.11.8-.47.19-.99.29-1.58.29-.5,0-.97-.08-1.41-.23-.43-.15-.79-.38-1.08-.69-.28-.31-.44-.71-.49-1.18h-1.58c.05.69.26,1.3.64,1.82.38.52.9.93,1.56,1.22.66.29,1.45.44,2.35.44.97,0,1.8-.16,2.48-.49.68-.33,1.2-.76,1.56-1.32.36-.55.53-1.17.53-1.85,0-.59-.12-1.09-.36-1.5-.24-.41-.55-.74-.92-1-.37-.26-.76-.47-1.17-.62-.41-.15-.77-.27-1.1-.36l-1.29-.35c-.23-.06-.49-.14-.77-.24-.28-.1-.55-.23-.8-.39-.26-.16-.46-.36-.63-.6-.16-.24-.24-.53-.24-.87,0-.4.12-.76.35-1.08.23-.32.56-.57.98-.75.42-.18.91-.27,1.47-.27.77,0,1.41.17,1.94.52.53.35.83.83.9,1.46h1.48Z"/>
  <polygon class="st1" points="50.68 40.95 50.68 53.61 52.21 53.61 52.21 40.95 50.68 40.95 50.68 40.95"/>
  <path class="st1" d="M66.13,43.17c-.3-.51-.68-.94-1.14-1.3-.45-.36-.96-.63-1.52-.81-.56-.19-1.16-.28-1.8-.28-1.08,0-2.04.26-2.88.79-.84.53-1.5,1.28-1.98,2.25-.48.97-.72,2.13-.72,3.46s.24,2.49.72,3.46c.48.97,1.14,1.72,1.98,2.25.84.53,1.8.79,2.88.79.64,0,1.24-.09,1.8-.28.56-.19,1.07-.46,1.52-.81.45-.36.83-.79,1.14-1.3.3-.51.51-1.09.63-1.74h-1.53c-.09.44-.25.82-.47,1.16-.22.34-.5.62-.82.85-.32.23-.67.4-1.06.52-.39.12-.79.17-1.21.17-.77,0-1.46-.19-2.08-.58-.62-.39-1.11-.96-1.48-1.71-.36-.75-.55-1.68-.55-2.77s.18-2.02.55-2.77c.36-.75.86-1.32,1.48-1.71.62-.39,1.31-.58,2.08-.58.42,0,.82.06,1.21.17.39.12.74.29,1.06.52.32.23.59.51.82.84.22.33.38.72.47,1.16h1.53c-.12-.65-.33-1.23-.63-1.74h0Z"/>
  <polygon class="st1" points="72.07 53.61 72.07 47.95 78.81 47.95 78.81 53.61 80.35 53.61 80.35 40.95 78.81 40.95 78.81 46.59 72.07 46.59 72.07 40.95 70.53 40.95 70.53 53.61 72.07 53.61 72.07 53.61"/>
  <polygon class="st1" points="92.45 53.61 92.45 52.25 86.24 52.25 86.24 47.95 91.95 47.95 91.95 46.59 86.24 46.59 86.24 42.31 92.35 42.31 92.35 40.95 84.71 40.95 84.71 53.61 92.45 53.61 92.45 53.61"/>
  <polygon class="st1" points="100.64 47.92 103.71 53.61 105.49 53.61 102.38 47.92 100.64 47.92 100.64 47.92"/>
  <path class="st1" d="M117.15,49.21c0,.62-.13,1.17-.41,1.65-.27.48-.66.86-1.16,1.13-.51.27-1.11.41-1.82.41s-1.31-.14-1.81-.41c-.5-.27-.89-.65-1.16-1.13-.27-.48-.41-1.03-.41-1.65v-8.26h-1.53v8.38c0,.87.2,1.64.61,2.31.41.68.98,1.21,1.72,1.6.74.39,1.6.58,2.6.58s1.86-.19,2.6-.58c.74-.39,1.31-.92,1.71-1.6.4-.68.61-1.45.61-2.31v-8.38h-1.53v8.26h0Z"/>
  <polygon class="st1" points="131.57 40.95 131.57 50.91 131.45 50.91 124.53 40.95 123.04 40.95 123.04 53.61 124.58 53.61 124.58 43.67 124.7 43.67 131.6 53.61 133.08 53.61 133.08 40.95 131.57 40.95 131.57 40.95"/>
  <path class="st1" d="M147.68,44.9c-.11-.61-.32-1.17-.63-1.68-.31-.5-.69-.94-1.14-1.3-.46-.36-.97-.65-1.55-.85-.58-.2-1.2-.3-1.87-.3-.81,0-1.55.15-2.23.45-.68.3-1.26.73-1.76,1.3-.49.56-.88,1.25-1.15,2.05-.27.8-.4,1.7-.4,2.7,0,1.33.24,2.49.71,3.46.47.97,1.13,1.72,1.98,2.25.85.53,1.83.79,2.95.79,1.01,0,1.9-.21,2.67-.63.78-.42,1.39-1.02,1.83-1.79.44-.77.66-1.68.66-2.72v-1.36h-4.82v1.36h3.81l-.47-.1c0,.77-.15,1.45-.47,2.02-.31.57-.74,1.01-1.3,1.32-.55.31-1.19.47-1.92.47-.78,0-1.49-.19-2.11-.58-.63-.39-1.12-.96-1.49-1.71-.37-.75-.55-1.68-.55-2.77s.18-2.02.54-2.77c.36-.75.85-1.32,1.46-1.71.61-.39,1.3-.58,2.04-.58.46,0,.88.06,1.26.19.38.12.73.3,1.03.54.3.23.56.52.79.85.22.33.4.71.53,1.12h1.58Z"/>
  <path class="st1" d="M160.08,44.11c-.02-.64-.22-1.21-.59-1.71-.37-.5-.88-.9-1.51-1.19-.63-.29-1.36-.44-2.18-.44s-1.54.15-2.19.44c-.65.29-1.17.71-1.56,1.24-.39.53-.58,1.15-.58,1.86,0,.85.29,1.54.86,2.07.58.53,1.36.93,2.35,1.22l1.56.44c.44.12.86.27,1.24.43.38.16.69.38.93.64.24.26.35.61.35,1.03,0,.46-.14.86-.41,1.21-.27.34-.64.61-1.11.8-.47.19-.99.29-1.58.29-.5,0-.97-.08-1.41-.23-.43-.15-.79-.38-1.07-.69-.28-.31-.44-.71-.49-1.18h-1.58c.05.69.26,1.3.64,1.82.38.52.9.93,1.56,1.22.66.29,1.44.44,2.35.44.97,0,1.8-.16,2.48-.49.68-.33,1.2-.76,1.56-1.32.36-.55.54-1.17.54-1.85,0-.59-.12-1.09-.37-1.5-.24-.41-.55-.74-.92-1-.37-.26-.76-.47-1.17-.62-.41-.15-.77-.27-1.1-.36l-1.29-.35c-.24-.06-.49-.14-.77-.24-.28-.1-.55-.23-.8-.39-.25-.16-.46-.36-.63-.6-.16-.24-.24-.53-.24-.87,0-.4.12-.76.35-1.08.23-.32.56-.57.98-.75.42-.18.91-.27,1.47-.27.77,0,1.41.17,1.94.52.53.35.83.83.9,1.46h1.48Z"/>
  <polygon class="st1" points="163.67 46.6 163.67 47.96 169.21 47.96 169.21 46.6 163.67 46.6 163.67 46.6"/>
  <path class="st1" d="M182.97,53.61l-4.65-12.66h-1.58l-4.65,12.66h1.61l1.27-3.58h5.12l1.27,3.58h1.61ZM179.61,48.66h-4.15l2.03-5.71h.1l2.03,5.71h0Z"/>
  <path class="st1" d="M195.89,44.9c-.12-.61-.33-1.17-.63-1.68-.3-.5-.68-.94-1.14-1.3-.46-.36-.97-.65-1.55-.85-.58-.2-1.2-.3-1.87-.3-.81,0-1.56.15-2.23.45-.68.3-1.26.73-1.76,1.3-.49.56-.88,1.25-1.15,2.05-.27.8-.4,1.7-.4,2.7,0,1.33.24,2.49.71,3.46.47.97,1.13,1.72,1.98,2.25.85.53,1.83.79,2.95.79,1,0,1.9-.21,2.67-.63.78-.42,1.39-1.02,1.83-1.79.44-.77.66-1.68.66-2.72v-1.36h-4.82v1.36h3.81l-.47-.1c0,.77-.16,1.45-.47,2.02-.31.57-.74,1.01-1.3,1.32-.56.31-1.19.47-1.92.47-.78,0-1.49-.19-2.11-.58-.63-.39-1.12-.96-1.49-1.71-.37-.75-.55-1.68-.55-2.77s.18-2.02.54-2.77c.36-.75.85-1.32,1.46-1.71.61-.39,1.3-.58,2.05-.58.46,0,.88.06,1.26.19.38.12.73.3,1.03.54.3.23.56.52.78.85.22.33.4.71.54,1.12h1.58Z"/>
  <path class="st1" d="M104.54,46.81c.31-.58.46-1.24.46-1.98s-.15-1.41-.46-2c-.3-.58-.77-1.05-1.41-1.38-.63-.34-1.44-.5-2.43-.5h-4.28v12.66h1.53v-4.94h2.77c.11,0,.21,0,.32-.01l2.67,4.96h1.78l-2.86-5.22c.18-.06.35-.13.51-.21.63-.33,1.1-.78,1.4-1.36h0ZM103.49,44.83c0,.51-.09.94-.28,1.31-.19.36-.49.65-.9.84-.41.2-.96.3-1.64.3h-2.72v-4.97h2.69c.68,0,1.23.1,1.65.31.42.21.72.5.91.88.19.38.28.82.28,1.33h0Z"/>
</svg>